<svg width="91" height="91" viewBox="0 0 91 91" fill="none" xmlns="http://www.w3.org/2000/svg">
<path d="M5.42862 27.4755C3.34403 48.5767 21.0675 56.3942 30.1898 57.6653C28.0183 79.6457 45.7925 86.9503 54.951 87.8551C64.1276 88.5767 83.0128 84.6347 85.1408 63.0939C87.2688 41.5532 69.52 33.9921 60.3796 32.9041C62.5511 10.9237 44.7769 3.61909 35.6184 2.71432C26.4237 2.17589 7.51322 6.37431 5.42862 27.4755Z" fill="#F4F4F4"/>
<path d="M32.2745 26.0049L26.7745 33.5051C33.7745 37.505 44.2745 36.5049 47.2745 33.5051L25.7745 79.5051H39.2745L66.2745 13.5051H52.7745C52.7745 25.9115 38.1079 27.8382 32.2745 26.0049Z" fill="#171717"/>
</svg>
